<?xml version="1.0" encoding="iso-8859-1"?>
<!-- Uploaded to: SVG Repo, www.svgrepo.com, Generator: SVG Repo Mixer Tools -->
<svg version="1.1" id="Layer_1" xmlns="http://www.w3.org/2000/svg" xmlns:xlink="http://www.w3.org/1999/xlink" 
	 viewBox="0 0 512 512" xml:space="preserve">
<polygon style="fill:#ABB9C6;" points="346.4,478.938 165.605,478.938 178.512,448.737 183.427,437.253 194.153,412.162 
	317.852,412.162 328.578,437.253 333.492,448.737 "/>
<polygon style="fill:#93A0AA;" points="328.578,437.253 183.427,437.253 194.153,412.162 317.852,412.162 "/>
<path style="fill:#B6C7D3;" d="M393.462,490.425H118.535l0,0c9.791-14.369,26.054-22.967,43.442-22.967h188.043
	C367.409,467.458,383.672,476.056,393.462,490.425L393.462,490.425z"/>
<path style="fill:#ABB9C6;" d="M512,55.096v326.991c0,18.511-14.997,33.52-33.509,33.52H33.509C14.997,415.607,0,400.598,0,382.087
	V55.096c0-18.511,14.997-33.52,33.509-33.52h444.983C497.003,21.576,512,36.585,512,55.096z"/>
<path style="fill:#C5D6E2;" d="M512,55.096v326.991c0,18.511-14.997,33.52-33.509,33.52H180.898l24.552-59.875L342.47,21.576
	h136.021C497.003,21.576,512,36.585,512,55.096z"/>
<path style="fill:#93A0AA;" d="M256.002,393.214c-3.448,0-6.634-2.135-7.958-5.317c-1.465-3.521-0.359-7.694,2.622-10.058
	c6.24-4.949,15.53,0.968,13.723,8.703C263.49,390.388,259.968,393.214,256.002,393.214z"/>
<path style="fill:#B8E9F2;" d="M512,55.095v300.636H0V55.095c0-18.511,14.997-33.52,33.51-33.52h444.982
	C497.003,21.575,512,36.585,512,55.095"/>
<path style="fill:#D4F7FC;" d="M512,55.095v300.636H205.45L342.47,21.575h136.021C497.003,21.575,512,36.585,512,55.095"/>
<g>
	
		<rect x="127.696" y="173.042" transform="matrix(-0.6771 -0.7359 0.7359 -0.6771 51.9697 502.855)" style="fill:#B24F4F;" width="17.225" height="133.967"/>
	<polyline style="fill:#B24F4F;" points="331.013,269.368 316.737,259.732 420.353,106.207 434.629,115.843 331.013,269.368 	"/>
	<polyline style="fill:#B24F4F;" points="299.208,274.572 202.337,200.514 212.798,186.831 309.669,260.887 299.208,274.572 	"/>
</g>
<g>
	<circle style="fill:#F75757;" cx="76.48" cy="295.101" r="22.967"/>
	<path style="fill:#F75757;" d="M338.809,276.45c0-12.685-10.283-22.967-22.967-22.967c-12.685,0-22.967,10.282-22.967,22.967
		c0,12.683,10.282,22.967,22.967,22.967C328.526,299.417,338.809,289.134,338.809,276.45"/>
	<path style="fill:#F75757;" d="M458.492,99.12c0-12.683-10.282-22.967-22.967-22.967s-22.967,10.283-22.967,22.967
		c0,12.685,10.282,22.967,22.967,22.967S458.492,111.805,458.492,99.12"/>
	<circle style="fill:#F75757;" cx="196.16" cy="184.952" r="22.967"/>
</g>
<path style="fill:#D4F7FC;" d="M478.491,21.575H342.47l-82.538,201.29l44.225,33.808c3.423-2.027,7.418-3.191,11.686-3.191
	c1.638,0,3.236,0.171,4.776,0.497l95.857-142.027c-2.474-3.664-3.917-8.08-3.917-12.834c0-12.683,10.282-22.967,22.967-22.967
	c12.685,0,22.967,10.283,22.967,22.967c0,12.685-10.282,22.967-22.967,22.967c-1.636,0-3.235-0.171-4.774-0.497l-95.857,142.028
	c2.472,3.663,3.916,8.079,3.916,12.832c0,12.683-10.283,22.967-22.967,22.967c-12.685,0-22.967-10.282-22.967-22.967
	c0-2.11,0.285-4.154,0.818-6.094l-40.531-30.981l-47.714,116.36H512V55.096C512,36.585,497.003,21.575,478.491,21.575"/>
<g>
	<path style="fill:#BF7070;" d="M416.475,111.953L320.618,253.98c5.922,1.253,11,4.785,14.275,9.639l95.857-142.028
		C424.829,120.338,419.75,116.805,416.475,111.953"/>
	<path style="fill:#BF7070;" d="M259.932,222.865l-6.768,16.507l40.528,30.985c1.593-5.801,5.404-10.685,10.464-13.682
		L259.932,222.865"/>
</g>
<g>
	<path style="fill:#F67676;" d="M315.842,253.483c-4.267,0-8.262,1.163-11.686,3.191c-5.061,2.997-8.872,7.881-10.464,13.682
		c-0.533,1.941-0.818,3.985-0.818,6.094c0,12.683,10.282,22.967,22.967,22.967c12.683,0,22.967-10.282,22.967-22.967
		c0-4.752-1.443-9.168-3.916-12.832c-3.275-4.853-8.353-8.386-14.275-9.639C319.078,253.654,317.48,253.483,315.842,253.483"/>
	<path style="fill:#F67676;" d="M435.525,76.154c-12.685,0-22.967,10.283-22.967,22.967c0,4.754,1.443,9.17,3.917,12.834
		c3.275,4.852,8.354,8.385,14.276,9.637c1.54,0.325,3.137,0.497,4.774,0.497c12.685,0,22.967-10.282,22.967-22.967
		C458.492,86.437,448.21,76.154,435.525,76.154"/>
</g>
</svg>